<svg width="315" height="99" viewBox="0 0 315 99" fill="none" xmlns="http://www.w3.org/2000/svg">
<path d="M110.779 98.432C105.147 98.432 100.326 97.2373 96.315 94.848C92.3897 92.3733 89.403 88.96 87.355 84.608C85.307 80.256 84.283 75.1787 84.283 69.376V27.008H103.483V67.84C103.483 70.4853 103.995 72.832 105.019 74.88C106.128 76.8427 107.664 78.3787 109.627 79.488C111.59 80.5973 113.808 81.152 116.283 81.152C118.843 81.152 121.062 80.5973 122.939 79.488C124.902 78.3787 126.395 76.8427 127.419 74.88C128.528 72.832 129.083 70.4853 129.083 67.84V27.008H148.283V96.896H130.363V83.072L131.387 86.144C129.766 90.3253 127.12 93.44 123.451 95.488C119.867 97.4507 115.643 98.432 110.779 98.432Z" fill="black"/>
<path d="M183.948 98.432C178.913 98.432 174.561 97.6213 170.892 96C167.223 94.3787 164.407 92.0747 162.444 89.088C160.481 86.016 159.5 82.3893 159.5 78.208C159.5 74.2827 160.396 70.8267 162.188 67.84C163.98 64.768 166.711 62.208 170.38 60.16C174.135 58.112 178.785 56.6613 184.332 55.808L205.708 52.352V66.432L187.788 69.632C185.057 70.144 182.967 71.04 181.516 72.32C180.065 73.5147 179.34 75.264 179.34 77.568C179.34 79.7013 180.151 81.3653 181.772 82.56C183.393 83.7547 185.399 84.352 187.788 84.352C190.945 84.352 193.719 83.6693 196.108 82.304C198.497 80.9387 200.332 79.104 201.612 76.8C202.977 74.4107 203.66 71.808 203.66 68.992V50.816C203.66 48.1707 202.593 45.952 200.46 44.16C198.412 42.368 195.596 41.472 192.012 41.472C188.599 41.472 185.569 42.4107 182.924 44.288C180.364 46.1653 178.487 48.64 177.292 51.712L161.932 44.416C163.297 40.4907 165.473 37.12 168.46 34.304C171.447 31.488 175.031 29.312 179.212 27.776C183.393 26.24 187.959 25.472 192.908 25.472C198.796 25.472 204.001 26.5387 208.524 28.672C213.047 30.8053 216.545 33.792 219.02 37.632C221.58 41.3867 222.86 45.7813 222.86 50.816V96.896H204.94V85.632L209.292 84.864C207.244 87.936 204.983 90.496 202.508 92.544C200.033 94.5067 197.26 95.9573 194.188 96.896C191.116 97.92 187.703 98.432 183.948 98.432Z" fill="black"/>
<path d="M236.941 96.896V27.008H254.861V43.776L253.581 41.344C255.117 35.456 257.634 31.488 261.133 29.44C264.717 27.3067 268.941 26.24 273.805 26.24H277.901V42.88H271.885C267.192 42.88 263.394 44.3307 260.493 47.232C257.592 50.048 256.141 54.0587 256.141 59.264V96.896H236.941Z" fill="black"/>
<path d="M296.556 67.456L295.276 1.536H314.476L313.196 67.456H296.556ZM295.276 96.896V77.696H314.476V96.896H295.276Z" fill="black"/>
<path fill-rule="evenodd" clip-rule="evenodd" d="M22.016 95.232C27.3067 97.3653 32.9387 98.432 38.912 98.432C45.6533 98.432 51.5413 97.2373 56.576 94.848C61.696 92.3733 65.7067 89.0027 68.608 84.736C71.5093 80.384 72.96 75.4347 72.96 69.888C72.96 63.488 71.04 58.0693 67.2 53.632C63.4453 49.1947 57.728 45.7387 50.048 43.264L31.744 37.376C28.8427 36.4373 26.6667 35.1573 25.216 33.536C23.7653 31.8293 23.04 29.8667 23.04 27.648C23.04 25.6 23.5947 23.808 24.704 22.272C25.8133 20.6507 27.392 19.4133 29.44 18.56C31.488 17.7067 33.8347 17.28 36.48 17.28C41.088 17.28 45.184 18.56 48.768 21.12C49.3912 21.5503 49.9874 22.0103 50.5564 22.5L64.896 11.264C61.3973 7.68 57.216 4.90667 52.352 2.944C47.488 0.981333 42.1973 0 36.48 0C29.9947 0 24.2347 1.19467 19.2 3.584C14.2507 5.97333 10.368 9.30133 7.552 13.568C4.82133 17.8347 3.456 22.784 3.456 28.416C3.456 34.816 5.376 40.32 9.216 44.928C13.056 49.4507 18.7733 52.9493 26.368 55.424L45.056 61.568C47.9573 62.5067 50.0907 63.7867 51.456 65.408C52.8213 66.944 53.504 68.8213 53.504 71.04C53.504 73.088 52.9493 74.88 51.84 76.416C50.7307 77.8667 49.1947 79.0187 47.232 79.872C45.2693 80.7253 42.9227 81.152 40.192 81.152C35.072 81.152 30.3787 79.6587 26.112 76.672C21.9307 73.6853 18.6453 69.5893 16.256 64.384L0 71.68C1.87733 77.1413 4.69333 81.8773 8.448 85.888C12.288 89.8987 16.8107 93.0133 22.016 95.232Z" fill="black"/>
<mask id="mask0_2006_30" style="mask-type:alpha" maskUnits="userSpaceOnUse" x="84" y="1" width="231" height="98">
<path d="M110.779 98.432C105.147 98.432 100.326 97.2373 96.315 94.848C92.3897 92.3733 89.403 88.96 87.355 84.608C85.307 80.256 84.283 75.1787 84.283 69.376V27.008H103.483V67.84C103.483 70.4853 103.995 72.832 105.019 74.88C106.128 76.8427 107.664 78.3787 109.627 79.488C111.59 80.5973 113.808 81.152 116.283 81.152C118.843 81.152 121.062 80.5973 122.939 79.488C124.902 78.3787 126.395 76.8427 127.419 74.88C128.528 72.832 129.083 70.4853 129.083 67.84V27.008H148.283V96.896H130.363V83.072L131.387 86.144C129.766 90.3253 127.12 93.44 123.451 95.488C119.867 97.4507 115.643 98.432 110.779 98.432Z" fill="black"/>
<path d="M183.948 98.432C178.913 98.432 174.561 97.6213 170.892 96C167.223 94.3787 164.407 92.0747 162.444 89.088C160.481 86.016 159.5 82.3893 159.5 78.208C159.5 74.2827 160.396 70.8267 162.188 67.84C163.98 64.768 166.711 62.208 170.38 60.16C174.135 58.112 178.785 56.6613 184.332 55.808L205.708 52.352V66.432L187.788 69.632C185.057 70.144 182.967 71.04 181.516 72.32C180.065 73.5147 179.34 75.264 179.34 77.568C179.34 79.7013 180.151 81.3653 181.772 82.56C183.393 83.7547 185.399 84.352 187.788 84.352C190.945 84.352 193.719 83.6693 196.108 82.304C198.497 80.9387 200.332 79.104 201.612 76.8C202.977 74.4107 203.66 71.808 203.66 68.992V50.816C203.66 48.1707 202.593 45.952 200.46 44.16C198.412 42.368 195.596 41.472 192.012 41.472C188.599 41.472 185.569 42.4107 182.924 44.288C180.364 46.1653 178.487 48.64 177.292 51.712L161.932 44.416C163.297 40.4907 165.473 37.12 168.46 34.304C171.447 31.488 175.031 29.312 179.212 27.776C183.393 26.24 187.959 25.472 192.908 25.472C198.796 25.472 204.001 26.5387 208.524 28.672C213.047 30.8053 216.545 33.792 219.02 37.632C221.58 41.3867 222.86 45.7813 222.86 50.816V96.896H204.94V85.632L209.292 84.864C207.244 87.936 204.983 90.496 202.508 92.544C200.033 94.5067 197.26 95.9573 194.188 96.896C191.116 97.92 187.703 98.432 183.948 98.432Z" fill="black"/>
<path d="M236.941 96.896V27.008H254.861V43.776L253.581 41.344C255.117 35.456 257.634 31.488 261.133 29.44C264.717 27.3067 268.941 26.24 273.805 26.24H277.901V42.88H271.885C267.192 42.88 263.394 44.3307 260.493 47.232C257.592 50.048 256.141 54.0587 256.141 59.264V96.896H236.941Z" fill="black"/>
<path d="M296.556 67.456L295.276 1.536H314.476L313.196 67.456H296.556ZM295.276 96.896V77.696H314.476V96.896H295.276Z" fill="black"/>
</mask>
<g mask="url(#mask0_2006_30)">
<path d="M311.776 51.8961L82 24.5L71 38L315.776 156.396L328.276 51.8961H311.776Z" fill="url(#paint0_linear_2006_30)"/>
</g>
<circle cx="66" cy="25" r="9" fill="#00E131"/>
<defs>
<linearGradient id="paint0_linear_2006_30" x1="71" y1="90.448" x2="328.276" y2="90.448" gradientUnits="userSpaceOnUse">
<stop stop-color="#00FF40"/>
<stop offset="0.903182" stop-color="#009926"/>
</linearGradient>
</defs>
</svg>
